<svg width="24" height="24" viewBox="0 0 24 24" fill="none" xmlns="http://www.w3.org/2000/svg">
<path d="M8.03431 11.0343C7.89211 11.1752 7.70007 11.2542 7.49993 11.2542C7.29979 11.2542 7.10775 11.1752 6.96556 11.0343L3.96556 8.03435C3.82694 7.89099 3.74945 7.69938 3.74945 7.49997C3.74945 7.30056 3.82694 7.10895 3.96556 6.9656L6.96556 3.9656C7.11128 3.846 7.29627 3.78488 7.48456 3.79413C7.67285 3.80337 7.85097 3.88233 7.98427 4.01563C8.11757 4.14893 8.19653 4.32705 8.20578 4.51534C8.21502 4.70363 8.1539 4.88862 8.03431 5.03435L6.30931 6.74997L19.4999 6.74997C19.6988 6.74997 19.8896 6.82899 20.0303 6.96964C20.1709 7.11029 20.2499 7.30106 20.2499 7.49997C20.2499 7.69888 20.1709 7.88965 20.0303 8.0303C19.8896 8.17095 19.6988 8.24997 19.4999 8.24997L6.30931 8.24997L8.03431 9.9656C8.17514 10.1078 8.25415 10.2998 8.25415 10.5C8.25415 10.7001 8.17514 10.8922 8.03431 11.0343V11.0343ZM17.0343 20.0343L20.0343 17.0343C20.1751 16.8922 20.2541 16.7001 20.2541 16.5C20.2541 16.2998 20.1751 16.1078 20.0343 15.9656L17.0343 12.9656C16.8886 12.846 16.7036 12.7849 16.5153 12.7941C16.327 12.8034 16.1489 12.8823 16.0156 13.0156C15.8823 13.1489 15.8033 13.327 15.7941 13.5153C15.7848 13.7036 15.846 13.8886 15.9656 14.0343L17.6906 15.75L4.49993 15.75C4.30102 15.75 4.11025 15.829 3.9696 15.9696C3.82895 16.1103 3.74993 16.3011 3.74993 16.5C3.74993 16.6989 3.82895 16.8896 3.9696 17.0303C4.11025 17.171 4.30102 17.25 4.49993 17.25L17.6906 17.25L15.9656 18.9656C15.8269 19.109 15.7495 19.3006 15.7495 19.5C15.7495 19.6994 15.8269 19.891 15.9656 20.0343C16.1078 20.1752 16.2998 20.2542 16.4999 20.2542C16.7001 20.2542 16.8921 20.1752 17.0343 20.0343V20.0343Z" fill="#FF5555"/>
</svg>
