<svg width="11" height="11" viewBox="0 0 11 11" fill="none" xmlns="http://www.w3.org/2000/svg">
<path d="M4.06768 1.32911L7.92913 5.17911C7.97497 5.22494 8.00736 5.2746 8.0263 5.32807C8.04555 5.38154 8.05518 5.43883 8.05518 5.49994C8.05518 5.56105 8.04555 5.61835 8.0263 5.67182C8.00736 5.72529 7.97497 5.77494 7.92913 5.82078L4.06768 9.68223C3.96073 9.78918 3.82705 9.84265 3.66663 9.84265C3.50622 9.84265 3.36872 9.78536 3.25413 9.67078C3.13955 9.55619 3.08226 9.42251 3.08226 9.26973C3.08226 9.11696 3.13955 8.98328 3.25413 8.86869L6.62288 5.49994L3.25413 2.13119C3.14719 2.02425 3.09372 1.89255 3.09372 1.73611C3.09372 1.57936 3.15101 1.44369 3.26559 1.32911C3.38018 1.21453 3.51386 1.15723 3.66663 1.15723C3.81941 1.15723 3.95309 1.21453 4.06768 1.32911Z" fill="#FF5555"/>
</svg>
