<svg width="40" height="40" viewBox="0 0 40 40" fill="none" xmlns="http://www.w3.org/2000/svg">
<g clip-path="url(#clip0_85_105)">
<path d="M14.3925 2.67744C14.5334 2.7618 14.6562 2.87307 14.7541 3.00492C14.8519 3.13677 14.9228 3.2866 14.9628 3.44586C15.0027 3.60512 15.0109 3.77069 14.9868 3.93311C14.9627 4.09552 14.9069 4.25161 14.8225 4.39244L8.4575 14.9999H31.5425L25.175 4.39244C25.0046 4.108 24.9542 3.76751 25.0348 3.44589C25.1155 3.12426 25.3206 2.84784 25.605 2.67744C25.8894 2.50704 26.2299 2.45661 26.5516 2.53725C26.8732 2.6179 27.1496 2.823 27.32 3.10744L34.4575 14.9999H37.5C38.163 14.9999 38.7989 15.2633 39.2678 15.7322C39.7366 16.201 40 16.8369 40 17.4999V19.9999C40 20.663 39.7366 21.2989 39.2678 21.7677C38.7989 22.2365 38.163 22.4999 37.5 22.4999V33.7499C37.5 35.4075 36.8415 36.9973 35.6694 38.1694C34.4973 39.3415 32.9076 39.9999 31.25 39.9999H8.75C7.0924 39.9999 5.50269 39.3415 4.33058 38.1694C3.15848 36.9973 2.5 35.4075 2.5 33.7499V22.4999C1.83696 22.4999 1.20107 22.2365 0.732233 21.7677C0.263392 21.2989 0 20.663 0 19.9999V17.4999C0 16.8369 0.263392 16.201 0.732233 15.7322C1.20107 15.2633 1.83696 14.9999 2.5 14.9999H5.5425L12.675 3.10744C12.7594 2.96658 12.8706 2.84371 13.0025 2.74586C13.1343 2.64801 13.2842 2.57709 13.4434 2.53716C13.6027 2.49723 13.7682 2.48907 13.9307 2.51314C14.0931 2.53721 14.2492 2.59304 14.39 2.67744H14.3925ZM5 22.4999V33.7499C5 34.7445 5.39509 35.6983 6.09835 36.4016C6.80161 37.1049 7.75544 37.4999 8.75 37.4999H31.25C32.2446 37.4999 33.1984 37.1049 33.9017 36.4016C34.6049 35.6983 35 34.7445 35 33.7499V22.4999H5ZM2.5 17.4999V19.9999H37.5V17.4999H2.5ZM10 24.9999C10.3315 24.9999 10.6495 25.1316 10.8839 25.3661C11.1183 25.6005 11.25 25.9184 11.25 26.2499V33.7499C11.25 34.0815 11.1183 34.3994 10.8839 34.6338C10.6495 34.8682 10.3315 34.9999 10 34.9999C9.66848 34.9999 9.35054 34.8682 9.11612 34.6338C8.8817 34.3994 8.75 34.0815 8.75 33.7499V26.2499C8.75 25.9184 8.8817 25.6005 9.11612 25.3661C9.35054 25.1316 9.66848 24.9999 10 24.9999ZM15 24.9999C15.3315 24.9999 15.6495 25.1316 15.8839 25.3661C16.1183 25.6005 16.25 25.9184 16.25 26.2499V33.7499C16.25 34.0815 16.1183 34.3994 15.8839 34.6338C15.6495 34.8682 15.3315 34.9999 15 34.9999C14.6685 34.9999 14.3505 34.8682 14.1161 34.6338C13.8817 34.3994 13.75 34.0815 13.75 33.7499V26.2499C13.75 25.9184 13.8817 25.6005 14.1161 25.3661C14.3505 25.1316 14.6685 24.9999 15 24.9999V24.9999ZM20 24.9999C20.3315 24.9999 20.6495 25.1316 20.8839 25.3661C21.1183 25.6005 21.25 25.9184 21.25 26.2499V33.7499C21.25 34.0815 21.1183 34.3994 20.8839 34.6338C20.6495 34.8682 20.3315 34.9999 20 34.9999C19.6685 34.9999 19.3505 34.8682 19.1161 34.6338C18.8817 34.3994 18.75 34.0815 18.75 33.7499V26.2499C18.75 25.9184 18.8817 25.6005 19.1161 25.3661C19.3505 25.1316 19.6685 24.9999 20 24.9999V24.9999ZM25 24.9999C25.3315 24.9999 25.6495 25.1316 25.8839 25.3661C26.1183 25.6005 26.25 25.9184 26.25 26.2499V33.7499C26.25 34.0815 26.1183 34.3994 25.8839 34.6338C25.6495 34.8682 25.3315 34.9999 25 34.9999C24.6685 34.9999 24.3505 34.8682 24.1161 34.6338C23.8817 34.3994 23.75 34.0815 23.75 33.7499V26.2499C23.75 25.9184 23.8817 25.6005 24.1161 25.3661C24.3505 25.1316 24.6685 24.9999 25 24.9999ZM30 24.9999C30.3315 24.9999 30.6495 25.1316 30.8839 25.3661C31.1183 25.6005 31.25 25.9184 31.25 26.2499V33.7499C31.25 34.0815 31.1183 34.3994 30.8839 34.6338C30.6495 34.8682 30.3315 34.9999 30 34.9999C29.6685 34.9999 29.3505 34.8682 29.1161 34.6338C28.8817 34.3994 28.75 34.0815 28.75 33.7499V26.2499C28.75 25.9184 28.8817 25.6005 29.1161 25.3661C29.3505 25.1316 29.6685 24.9999 30 24.9999Z" fill="#FF5555"/>
</g>
<defs>
<clipPath id="clip0_85_105">
<rect width="40" height="40" fill="white"/>
</clipPath>
</defs>
</svg>
