<svg width="24" height="24" viewBox="0 0 24 24" fill="none" xmlns="http://www.w3.org/2000/svg">
<path d="M21.5625 6.63758H21.5532C21.4186 6.40938 21.2282 6.21906 21 6.08446L12.75 1.42508C12.5248 1.30032 12.2716 1.23486 12.0141 1.23486C11.7566 1.23486 11.5034 1.30032 11.2782 1.42508L3.02815 6.06571C2.79521 6.19732 2.60116 6.38813 2.46565 6.61883C2.46565 6.62006 2.46541 6.62128 2.46494 6.62242C2.46447 6.62356 2.46378 6.62459 2.46291 6.62546C2.46204 6.62633 2.461 6.62702 2.45987 6.62749C2.45873 6.62796 2.45751 6.62821 2.45628 6.62821V6.64696C2.32502 6.86812 2.25693 7.12104 2.2594 7.37821V16.622C2.25988 16.8892 2.3313 17.1515 2.46636 17.3821C2.60143 17.6127 2.79529 17.8033 3.02815 17.9345L11.2782 22.5751C11.4859 22.6884 11.7168 22.7525 11.9532 22.7626H12.0844C12.3176 22.7511 12.5451 22.687 12.75 22.5751L21 17.9345C21.2305 17.8014 21.422 17.6101 21.5552 17.3798C21.6885 17.1494 21.7589 16.8881 21.7594 16.622V7.37821C21.7608 7.11822 21.6928 6.86257 21.5625 6.63758ZM12.0094 2.73758L19.4907 6.93758L16.6125 8.56883L9.05628 4.39696L12.0094 2.73758ZM12.0938 11.1376L4.5469 6.93758L7.51878 5.26883L15.0844 9.44071L12.0938 11.1376ZM3.7594 8.21258L11.3438 12.4407L11.2688 20.8501L3.7594 16.622V8.21258ZM12.7688 20.8407L12.8438 12.4407L15.8532 10.7251V14.297C15.8532 14.4959 15.9322 14.6866 16.0728 14.8273C16.2135 14.9679 16.4042 15.047 16.6032 15.047C16.8021 15.047 16.9928 14.9679 17.1335 14.8273C17.2741 14.6866 17.3532 14.4959 17.3532 14.297V9.87196L20.2594 8.22196V16.622L12.7688 20.8407Z" fill="#FF5555"/>
</svg>
