<svg width="25" height="25" viewBox="0 0 25 25" fill="none" xmlns="http://www.w3.org/2000/svg">
<path d="M10.1563 19.1405C9.84558 19.1392 9.54772 19.0165 9.32618 18.7987L3.85743 13.33C3.63728 13.1098 3.5136 12.8112 3.5136 12.4999C3.5136 12.1885 3.63728 11.89 3.85743 11.6698C4.07758 11.4497 4.37617 11.326 4.68751 11.326C4.99885 11.326 5.29743 11.4497 5.51758 11.6698L10.1563 16.3085L20.2637 6.20106C20.3727 6.09205 20.5021 6.00558 20.6445 5.94658C20.7869 5.88759 20.9396 5.85723 21.0938 5.85723C21.2479 5.85723 21.4006 5.88759 21.543 5.94658C21.6854 6.00558 21.8148 6.09205 21.9238 6.20106C22.0328 6.31006 22.1193 6.43947 22.1783 6.5819C22.2373 6.72432 22.2677 6.87697 22.2677 7.03113C22.2677 7.18529 22.2373 7.33794 22.1783 7.48037C22.1193 7.62279 22.0328 7.75221 21.9238 7.86121L10.9863 18.7987C10.7648 19.0165 10.4669 19.1392 10.1563 19.1405Z" fill="#2BC960"/>
<path fill-rule="evenodd" clip-rule="evenodd" d="M8.8312 19.2937L3.36245 13.8249C3.01103 13.4735 2.8136 12.9969 2.8136 12.4999C2.8136 12.0029 3.01103 11.5263 3.36245 11.1748C3.71388 10.8234 4.19052 10.626 4.68751 10.626C5.1845 10.626 5.66113 10.8234 6.01256 11.1748L10.1563 15.3185L19.7687 5.70608C19.9427 5.53207 20.1493 5.39404 20.3766 5.29987C20.604 5.2057 20.8477 5.15723 21.0938 5.15723C21.3398 5.15723 21.5835 5.2057 21.8109 5.29987C22.0382 5.39404 22.2448 5.53207 22.4188 5.70608C22.5928 5.88009 22.7309 6.08667 22.825 6.31402C22.9192 6.54138 22.9677 6.78505 22.9677 7.03113C22.9677 7.27722 22.9192 7.52089 22.825 7.74825C22.7309 7.9756 22.5928 8.18218 22.4188 8.35619L11.4771 19.2979C11.1254 19.6437 10.6525 19.8384 10.1593 19.8405L10.1563 19.1405C10.4669 19.1392 10.7648 19.0165 10.9863 18.7987L21.9238 7.86121C22.0328 7.75221 22.1193 7.62279 22.1783 7.48037C22.2373 7.33794 22.2677 7.18529 22.2677 7.03113C22.2677 6.87697 22.2373 6.72432 22.1783 6.5819C22.1193 6.43947 22.0328 6.31006 21.9238 6.20106C21.8148 6.09205 21.6854 6.00558 21.543 5.94658C21.4006 5.88759 21.2479 5.85723 21.0938 5.85723C20.9396 5.85723 20.7869 5.88759 20.6445 5.94658C20.5021 6.00558 20.3727 6.09205 20.2637 6.20106L10.1563 16.3085L5.51758 11.6698C5.29743 11.4497 4.99885 11.326 4.68751 11.326C4.37617 11.326 4.07758 11.4497 3.85743 11.6698C3.63728 11.89 3.5136 12.1885 3.5136 12.4999C3.5136 12.8112 3.63728 13.1098 3.85743 13.33L9.32618 18.7987C9.54772 19.0165 9.84558 19.1392 10.1563 19.1405L10.1532 19.8405C9.66001 19.8384 9.18715 19.6437 8.83544 19.2979L8.8312 19.2937Z" fill="#2BC960"/>
</svg>
