<svg width="40" height="40" viewBox="0 0 40 40" fill="none" xmlns="http://www.w3.org/2000/svg">
<path d="M27.0833 3C24.5432 3 22.2412 3.476 20.442 4.37275C18.6442 5.2695 17.1667 6.73008 17.1667 8.66667V14.3333C17.1667 14.5161 17.2276 14.6932 17.2559 14.8646C15.8379 14.5042 14.3798 14.3257 12.9167 14.3333C10.3766 14.3333 8.0745 14.8093 6.27533 15.7061C4.47758 16.6028 3 18.0634 3 20V31.3333C3 33.2699 4.47758 34.7305 6.27675 35.6272C8.0745 36.524 10.3766 37 12.9167 37C15.4567 37 17.7588 36.524 19.558 35.6272C21.3543 34.7305 22.8333 33.2699 22.8333 31.3333V30.7582C24.2192 31.1328 25.6478 31.3262 27.0833 31.3333C29.6234 31.3333 31.9255 30.8573 33.7247 29.9606C35.521 29.0638 37 27.6032 37 25.6667V8.66667C37 6.73008 35.5224 5.2695 33.7232 4.37275C31.9269 3.476 29.6248 3 27.0833 3ZM27.0833 5.83333C29.2409 5.83333 31.1619 6.298 32.4397 6.93975C33.719 7.5815 34.1667 8.25725 34.1667 8.66667C34.1667 9.0775 33.719 9.75183 32.4397 10.3936C31.1633 11.0353 29.2409 11.5 27.0833 11.5C24.9257 11.5 23.0047 11.0353 21.7269 10.3936C20.4477 9.75183 20 9.07608 20 8.66667C20 8.25583 20.4477 7.5815 21.7269 6.93975C23.0033 6.298 24.9257 5.83333 27.0833 5.83333ZM20 12.6957C20.1487 12.7778 20.2876 12.8841 20.4434 12.9606C22.2412 13.8573 24.5432 14.3333 27.0833 14.3333C29.6234 14.3333 31.9255 13.8573 33.7247 12.9606C33.8791 12.8841 34.0179 12.7778 34.1667 12.6957V14.3333C34.1667 14.7442 33.719 15.4185 32.4397 16.0602C31.1619 16.702 29.2409 17.1667 27.0833 17.1667C24.9257 17.1667 23.0047 16.702 21.7269 16.0602C20.4477 15.4185 20 14.7427 20 14.3333V12.6957ZM12.9167 17.1667C15.0742 17.1667 16.9952 17.6313 18.2731 18.2731C19.5523 18.9148 20 19.5906 20 20C20 20.4108 19.5523 21.0852 18.2731 21.7269C16.9952 22.3687 15.0742 22.8333 12.9167 22.8333C10.7591 22.8333 8.83808 22.3687 7.56025 21.7269C6.281 21.0852 5.83333 20.4094 5.83333 20C5.83333 19.5892 6.281 18.9148 7.56025 18.2731C8.83667 17.6313 10.7591 17.1667 12.9167 17.1667ZM34.1667 18.3623V20C34.1667 20.4108 33.719 21.0852 32.4397 21.7269C31.1619 22.3687 29.2409 22.8333 27.0833 22.8333C25.6402 22.8412 24.2052 22.6168 22.8333 22.1689V20C22.8333 19.8172 22.7724 19.6402 22.7441 19.4687C24.0616 19.8116 25.5222 20 27.0833 20C29.6234 20 31.9255 19.524 33.7247 18.6272C33.8791 18.5507 34.0179 18.4445 34.1667 18.3623V18.3623ZM5.83333 24.029C5.98208 24.1112 6.12092 24.2174 6.27675 24.2939C8.0745 25.1907 10.3766 25.6667 12.9167 25.6667C15.4567 25.6667 17.7588 25.1907 19.558 24.2939C19.7124 24.2174 19.8512 24.1112 20 24.029V25.6667C20 26.0775 19.5523 26.7518 18.2731 27.3936C16.9952 28.0353 15.0742 28.5 12.9167 28.5C10.7591 28.5 8.83808 28.0353 7.56025 27.3936C6.281 26.7518 5.83333 26.0761 5.83333 25.6667V24.029ZM34.1667 24.029V25.6667C34.1667 26.0775 33.719 26.7518 32.4397 27.3936C31.1619 28.0353 29.2409 28.5 27.0833 28.5C25.4726 28.5 24.0177 28.2733 22.8333 27.8795V25.1354C24.1338 25.4782 25.5505 25.6667 27.0833 25.6667C29.6234 25.6667 31.9255 25.1907 33.7247 24.2939C33.8791 24.2174 34.0179 24.1112 34.1667 24.029V24.029ZM5.83333 29.6957C5.98208 29.7778 6.12092 29.8841 6.27675 29.9606C8.0745 30.8573 10.3766 31.3333 12.9167 31.3333C15.4567 31.3333 17.7588 30.8573 19.558 29.9606C19.7124 29.8841 19.8512 29.7778 20 29.6957V31.3333C20 31.7442 19.5523 32.4185 18.2731 33.0602C16.9952 33.702 15.0742 34.1667 12.9167 34.1667C10.7591 34.1667 8.83808 33.702 7.56025 33.0602C6.281 32.4185 5.83333 31.7427 5.83333 31.3333V29.6957Z" fill="#FF5555"/>
</svg>
