<svg width="25" height="25" viewBox="0 0 25 25" fill="none" xmlns="http://www.w3.org/2000/svg">
<path d="M6.06661 3.78325L12.4999 10.2166L18.8999 3.81659C19.0413 3.66611 19.2116 3.54574 19.4006 3.46269C19.5897 3.37964 19.7935 3.33561 19.9999 3.33325C20.442 3.33325 20.8659 3.50885 21.1785 3.82141C21.491 4.13397 21.6666 4.55789 21.6666 4.99992C21.6705 5.20426 21.6326 5.40723 21.5552 5.59639C21.4778 5.78555 21.3626 5.95689 21.2166 6.09992L14.7333 12.4999L21.2166 18.9833C21.4913 19.252 21.6524 19.6159 21.6666 19.9999C21.6666 20.4419 21.491 20.8659 21.1785 21.1784C20.8659 21.491 20.442 21.6666 19.9999 21.6666C19.7875 21.6754 19.5756 21.6399 19.3776 21.5625C19.1797 21.485 19 21.3672 18.8499 21.2166L12.4999 14.7833L6.08328 21.1999C5.94246 21.3454 5.77422 21.4615 5.58828 21.5416C5.40235 21.6217 5.20239 21.6642 4.99995 21.6666C4.55792 21.6666 4.13399 21.491 3.82143 21.1784C3.50887 20.8659 3.33328 20.4419 3.33328 19.9999C3.32939 19.7956 3.3673 19.5926 3.44469 19.4035C3.52207 19.2143 3.63729 19.0429 3.78328 18.8999L10.2666 12.4999L3.78328 6.01659C3.50859 5.74785 3.34751 5.38394 3.33328 4.99992C3.33328 4.55789 3.50887 4.13397 3.82143 3.82141C4.13399 3.50885 4.55792 3.33325 4.99995 3.33325C5.39995 3.33825 5.78328 3.49992 6.06661 3.78325Z" fill="#9FB0C6"/>
</svg>
