<svg width="25" height="25" viewBox="0 0 25 25" fill="none" xmlns="http://www.w3.org/2000/svg">
<path d="M6.06667 3.78325L12.5 10.2166L18.9 3.81659C19.0414 3.66611 19.2117 3.54574 19.4007 3.46269C19.5897 3.37964 19.7936 3.33561 20 3.33325C20.442 3.33325 20.866 3.50885 21.1785 3.82141C21.4911 4.13397 21.6667 4.55789 21.6667 4.99992C21.6706 5.20426 21.6326 5.40723 21.5553 5.59639C21.4779 5.78555 21.3627 5.95689 21.2167 6.09992L14.7333 12.4999L21.2167 18.9833C21.4914 19.252 21.6524 19.6159 21.6667 19.9999C21.6667 20.4419 21.4911 20.8659 21.1785 21.1784C20.866 21.491 20.442 21.6666 20 21.6666C19.7876 21.6754 19.5757 21.6399 19.3777 21.5625C19.1797 21.485 19 21.3672 18.85 21.2166L12.5 14.7833L6.08334 21.1999C5.94252 21.3454 5.77428 21.4615 5.58834 21.5416C5.40241 21.6217 5.20245 21.6642 5.00001 21.6666C4.55798 21.6666 4.13406 21.491 3.8215 21.1784C3.50893 20.8659 3.33334 20.4419 3.33334 19.9999C3.32945 19.7956 3.36737 19.5926 3.44475 19.4035C3.52213 19.2143 3.63735 19.0429 3.78334 18.8999L10.2667 12.4999L3.78334 6.01659C3.50865 5.74785 3.34757 5.38394 3.33334 4.99992C3.33334 4.55789 3.50893 4.13397 3.8215 3.82141C4.13406 3.50885 4.55798 3.33325 5.00001 3.33325C5.40001 3.33825 5.78334 3.49992 6.06667 3.78325Z" fill="#C5D1E1"/>
</svg>
