<svg width="220" height="62" viewBox="0 0 220 62" fill="none" xmlns="http://www.w3.org/2000/svg">
<path d="M89.655 42.99H84.44L79.505 34.485H75.83V42.99H71V18.49H80.8C83.0633 18.49 84.9883 19.2833 86.575 20.87C88.1617 22.4567 88.955 24.37 88.955 26.61C88.955 28.1267 88.5233 29.5383 87.66 30.845C86.7967 32.1283 85.6533 33.0967 84.23 33.75L89.655 42.99ZM80.8 23.005H75.83V30.25H80.8C81.71 30.25 82.4917 29.9 83.145 29.2C83.7983 28.4767 84.125 27.6133 84.125 26.61C84.125 25.6067 83.7983 24.755 83.145 24.055C82.4917 23.355 81.71 23.005 80.8 23.005Z" fill="#272D4E"/>
<path d="M92.499 42.99V18.49H97.329V42.99H92.499Z" fill="#272D4E"/>
<path d="M113.484 43.48C109.821 43.48 106.776 42.255 104.349 39.805C101.946 37.3783 100.744 34.3567 100.744 30.74C100.744 27.1 101.946 24.0783 104.349 21.675C106.776 19.225 109.821 18 113.484 18C115.701 18 117.743 18.525 119.609 19.575C121.499 20.6017 122.969 22.0017 124.019 23.775L119.854 26.19C119.248 25.0933 118.384 24.2417 117.264 23.635C116.144 23.005 114.884 22.69 113.484 22.69C111.104 22.69 109.179 23.4367 107.709 24.93C106.263 26.4467 105.539 28.3833 105.539 30.74C105.539 33.0733 106.263 34.9983 107.709 36.515C109.179 38.0083 111.104 38.755 113.484 38.755C114.884 38.755 116.144 38.4517 117.264 37.845C118.408 37.215 119.271 36.3633 119.854 35.29L124.019 37.705C122.969 39.4783 121.499 40.89 119.609 41.94C117.743 42.9667 115.701 43.48 113.484 43.48Z" fill="#272D4E"/>
<path d="M140.916 28.22V18.49H145.711V42.99H140.916V32.84H131.816V42.99H126.986V18.49H131.816V28.22H140.916Z" fill="#272D4E"/>
<path d="M169.268 18.49H174.238V42.99H169.443V27.1L162.548 38.475H161.988L155.093 27.135V42.99H150.263V18.49H155.233L162.268 30.075L169.268 18.49Z" fill="#272D4E"/>
<path d="M178.803 42.99V18.49H183.633V42.99H178.803Z" fill="#272D4E"/>
<path d="M192.998 18.49V38.37H202.343V42.99H188.168V18.49H192.998Z" fill="#272D4E"/>
<path d="M209.917 18.49V38.37H219.262V42.99H205.087V18.49H209.917Z" fill="#272D4E"/>
<path d="M61 30.5C61 46.7924 47.5685 60 31 60C14.4315 60 1 46.7924 1 30.5C1 14.2076 14.4315 0.999998 31 0.999998C47.5685 0.999998 61 14.2076 61 30.5Z" fill="#232323"/>
<path fill-rule="evenodd" clip-rule="evenodd" d="M31 1.52863C14.7234 1.52863 1.5286 14.7234 1.5286 31C1.5286 47.2766 14.7234 60.4714 31 60.4714C47.2766 60.4714 60.4714 47.2766 60.4714 31C60.4714 14.7234 47.2766 1.52863 31 1.52863ZM1 31C1 14.4314 14.4315 0.999998 31 0.999998C47.5685 0.999998 61 14.4314 61 31C61 47.5686 47.5685 61 31 61C14.4315 61 1 47.5686 1 31Z" fill="white"/>
<path d="M31 0.999998C14.4315 0.999998 1 14.2076 1 30.5C1 46.7924 14.4315 60 31 60C47.5685 60 61 46.7924 61 30.5C61 14.2076 47.5685 0.999998 31 0.999998ZM31 0.999998C14.4315 0.999998 1 14.4314 1 31C1 47.5686 14.4315 61 31 61C47.5685 61 61 47.5686 61 31C61 14.4314 47.5685 0.999998 31 0.999998ZM1.5286 31C1.5286 14.7234 14.7234 1.52863 31 1.52863C47.2766 1.52863 60.4714 14.7234 60.4714 31C60.4714 47.2766 47.2766 60.4714 31 60.4714C14.7234 60.4714 1.5286 47.2766 1.5286 31Z" stroke="white"/>
<path fill-rule="evenodd" clip-rule="evenodd" d="M30.2147 31.8203C30.1565 31.8606 30.0958 31.9031 30.0329 31.9477C29.3459 32.4343 28.3878 33.1715 27.3087 34.1708C25.1499 36.1698 22.5105 39.2141 20.5847 43.3958C19.1055 46.608 18.7741 50.3482 18.8177 53.3013C18.8395 54.7751 18.9545 56.0465 19.064 56.949C19.0943 57.1989 19.1242 57.4204 19.1516 57.6099C18.4798 57.3257 17.8206 57.0179 17.1752 56.6878C17.1656 56.5665 17.1561 56.4362 17.1468 56.2974C17.0855 55.3758 17.0391 54.081 17.0982 52.5859C17.2164 49.6012 17.7564 45.7936 19.4611 42.5657C21.6509 38.4192 24.5023 35.4711 26.8055 33.5599C27.9574 32.604 28.9731 31.9066 29.7022 31.4475C29.7782 31.3997 29.8511 31.3544 29.9208 31.3116C29.8359 31.3184 29.7464 31.326 29.6525 31.3345C28.7916 31.4132 27.5608 31.574 26.0878 31.9027C23.1412 32.5603 19.2302 33.8887 15.3699 36.5707C12.4047 38.6308 10.1891 41.7312 8.7114 44.3331C7.97392 45.6316 7.42327 46.8003 7.0572 47.644C6.89318 48.022 6.76632 48.3345 6.67639 48.5639C6.2331 47.9511 5.8124 47.3209 5.41551 46.6744C5.4971 46.502 5.59297 46.304 5.70298 46.084C6.12088 45.2484 6.74334 44.0942 7.56247 42.8187C9.19771 40.2723 11.6303 37.2203 14.802 35.2631C18.8765 32.7489 22.9253 31.6154 25.9546 31.1102C27.4697 30.8575 28.7311 30.7618 29.6152 30.7293C29.7056 30.726 29.792 30.7233 29.8744 30.7212C29.8169 30.6941 29.757 30.6663 29.6948 30.6377C28.9299 30.2861 27.8124 29.825 26.4074 29.3901C23.5967 28.5202 19.6404 27.7567 15.0558 28.1799C11.5342 28.505 8.12917 30.0881 5.5934 31.6024C4.32788 32.3582 3.28422 33.0935 2.55734 33.6396C2.19399 33.9125 1.91005 34.138 1.71739 34.2949C1.62107 34.3733 1.54759 34.4346 1.49843 34.476C1.47385 34.4967 1.45535 34.5125 1.44312 34.523L1.4295 34.5347L1.42555 34.5381L1.4239 34.5365L1.25242 34.3394C1.22085 34.3031 1.19504 34.2734 1.17395 34.2491C1.16772 34.1913 1.16165 34.1334 1.15575 34.0755C1.15671 34.0746 1.15768 34.0738 1.15866 34.073C1.19435 34.0429 1.24183 34.0032 1.30062 33.9548L1.20029 33.8355C1.16961 33.799 1.14448 33.7691 1.1239 33.7446C1.11862 33.6863 1.1135 33.628 1.10854 33.5696C1.10937 33.5689 1.11021 33.5683 1.11106 33.5676C1.14594 33.5392 1.19194 33.502 1.2486 33.4569L1.15782 33.3453C1.12798 33.3086 1.1035 33.2784 1.08342 33.2537C1.07906 33.1951 1.07487 33.1363 1.07085 33.0776C1.07156 33.077 1.07228 33.0765 1.073 33.0759C1.12001 33.0389 1.18694 32.9867 1.27267 32.9213L1.11518 32.719C1.08645 32.6822 1.06283 32.6518 1.0434 32.6268C1.04023 32.5677 1.03724 32.5084 1.03442 32.4492C1.03495 32.4488 1.03549 32.4484 1.03602 32.448C1.08964 32.4075 1.16874 32.3486 1.2717 32.2737C1.47761 32.1238 1.77901 31.9101 2.16287 31.6531C2.93038 31.1392 4.02859 30.4516 5.35304 29.7553C7.99704 28.3653 11.5648 26.9291 15.2127 26.7914C19.8989 26.6145 23.8778 27.6097 26.6847 28.6486C28.0885 29.1682 29.2003 29.6991 29.9625 30.1009C30.0377 30.1406 30.1095 30.1789 30.1779 30.216C30.1376 30.1578 30.0952 30.0973 30.0507 30.0345C29.564 29.3475 28.8268 28.3895 27.8275 27.3104C25.8283 25.1518 22.7838 22.5125 18.6019 20.5869C15.3896 19.1077 11.6491 18.7764 8.69583 18.82C7.22198 18.8417 5.95046 18.9567 5.0479 19.0662C4.59673 19.121 4.23808 19.1743 3.9928 19.2138C3.87016 19.2336 3.7759 19.2499 3.7126 19.2612C3.68096 19.2669 3.65705 19.2713 3.64123 19.2742L3.62358 19.2776L3.61844 19.2785L3.61782 19.2763L3.56789 19.0199C3.51749 18.7612 3.51771 18.7611 3.51771 18.7611L3.51955 18.7608L3.52474 18.7598L3.54438 18.7561C3.56155 18.7529 3.58683 18.7482 3.61989 18.7423C3.66582 18.7341 3.72677 18.7235 3.80187 18.711L3.77465 18.5574C3.72863 18.2978 3.72885 18.2978 3.72885 18.2978L3.7307 18.2975L3.7359 18.2966L3.75561 18.2932C3.77283 18.2903 3.79818 18.2861 3.83133 18.2807C3.87574 18.2736 3.93413 18.2644 4.00573 18.2537L3.98294 18.1115C3.9412 17.8513 3.94142 17.8512 3.94142 17.8512L3.94327 17.8509L3.94849 17.8501L3.96825 17.8471C3.98552 17.8444 4.01093 17.8406 4.04417 17.8358C4.10337 17.8273 4.18738 17.8156 4.29431 17.8018L4.25904 17.5479C4.22276 17.2868 4.22299 17.2868 4.22299 17.2868L4.22484 17.2865L4.23008 17.2858L4.24989 17.2832C4.26722 17.2809 4.29271 17.2776 4.32603 17.2735C4.39268 17.2653 4.49067 17.2538 4.6173 17.2404C4.87054 17.2136 5.23842 17.1792 5.69936 17.1486C6.62101 17.0873 7.91594 17.0408 9.41112 17.1C12.3959 17.2181 16.2039 17.7581 19.4319 19.4627C23.5787 21.6525 26.5269 24.5038 28.4383 26.8068C29.3942 27.9586 30.0917 28.9743 30.5508 29.7033C30.5957 29.7746 30.6384 29.8432 30.6787 29.909C30.6719 29.8125 30.6642 29.7104 30.6554 29.6029C30.5827 28.7183 30.4374 27.4712 30.1465 26.0245C29.5642 23.128 28.4019 19.448 26.0869 16.2748C23.342 12.5124 20.0669 10.072 17.4764 8.57202C16.1815 7.82223 15.059 7.30821 14.2616 6.98207C13.88 6.82601 13.5731 6.71303 13.3575 6.63788C13.9796 6.19232 14.6199 5.76971 15.2769 5.37133C15.4348 5.4407 15.6153 5.52257 15.8158 5.61759C16.6127 5.99527 17.7271 6.58095 19.0023 7.41497C21.5522 9.08256 24.7504 11.7464 27.3377 15.7304C29.5355 19.1148 30.5137 22.9379 30.9442 25.9052C31.1597 27.3904 31.2385 28.6653 31.2635 29.5698C31.2667 29.6863 31.269 29.7967 31.2706 29.9006C31.3085 29.8222 31.3481 29.7395 31.389 29.6526C31.7574 28.8707 32.2397 27.7471 32.6943 26.3831C33.6045 23.6522 34.3982 19.9732 33.9555 16.1502C33.4306 11.6172 31.8069 7.93616 30.313 5.38739C29.5663 4.11335 28.8529 3.12357 28.3271 2.45335C28.0642 2.11829 27.8483 1.86324 27.6988 1.69262C27.6241 1.60731 27.5659 1.54312 27.5268 1.50061C27.5072 1.47935 27.4924 1.46351 27.4827 1.45316L27.4719 1.44176L27.4689 1.43858C27.4689 1.43858 27.4689 1.43865 27.6588 1.2558C27.6941 1.22174 27.7229 1.19404 27.7463 1.1715C27.8053 1.16524 27.8644 1.15915 27.9235 1.15323C27.9574 1.19018 28.0023 1.23978 28.0571 1.30176L28.1626 1.20347C28.1977 1.17084 28.2264 1.14414 28.2499 1.1223C28.3099 1.11693 28.3701 1.11173 28.4303 1.10671C28.4622 1.14275 28.5039 1.19042 28.5544 1.24949L28.6529 1.1608C28.6877 1.12944 28.7163 1.10366 28.7399 1.08246C28.8009 1.078 28.8619 1.07371 28.923 1.0696C28.9628 1.11604 29.0178 1.18125 29.0862 1.26476L29.0956 1.27627L29.2789 1.11807C29.3136 1.08816 29.3422 1.06344 29.3658 1.04302C29.4278 1.03975 29.4898 1.03667 29.5519 1.03377C29.5907 1.08095 29.6439 1.14689 29.71 1.23109C29.8555 1.41654 30.0629 1.69059 30.313 2.04779C30.8132 2.76209 31.4847 3.80947 32.1736 5.14626C33.5509 7.81912 35.0003 11.6544 35.2838 16.3002C35.5247 20.2468 34.5058 23.958 33.433 26.6753C32.896 28.0354 32.344 29.1502 31.9258 29.9257C31.877 30.0163 31.83 30.1022 31.785 30.1833C31.8567 30.1347 31.932 30.0831 32.0106 30.0285C32.7205 29.5355 33.7001 28.8035 34.7758 27.8496C36.9296 25.9396 39.4566 23.1503 40.9848 19.6182C42.7969 15.4301 43.2313 11.4304 43.2121 8.47623C43.2025 6.99955 43.0795 5.78565 42.9593 4.94233C42.8992 4.52073 42.8398 4.19193 42.7956 3.96942C42.7735 3.85818 42.7553 3.77352 42.7426 3.71714C42.7363 3.68895 42.7314 3.66783 42.7281 3.65399L42.7245 3.63872L42.7235 3.63445L42.9793 3.57109C43.0678 3.54915 43.1257 3.53483 43.1635 3.52548C43.1918 3.5378 43.22 3.55016 43.2481 3.56257C43.2507 3.57396 43.2537 3.58709 43.257 3.60195C43.2683 3.65205 43.2834 3.72171 43.3013 3.80996L43.4418 3.77767C43.5338 3.7565 43.5929 3.74295 43.6308 3.73427C43.6573 3.74636 43.6837 3.75849 43.7101 3.77065C43.7127 3.78277 43.7157 3.79697 43.719 3.81322C43.729 3.86186 43.7424 3.92886 43.7581 4.01333L43.8877 3.98579C43.9832 3.96545 44.0434 3.95268 44.0812 3.94467C44.106 3.95648 44.1307 3.96833 44.1555 3.98021C44.158 3.993 44.1609 4.00824 44.1642 4.02589C44.1758 4.08673 44.1919 4.17618 44.211 4.29248L44.2134 4.30718L44.4512 4.26182C44.5515 4.24264 44.613 4.23094 44.6507 4.2238C44.6732 4.23516 44.6958 4.24654 44.7183 4.25795C44.7207 4.27156 44.7235 4.28816 44.7268 4.30771C44.737 4.36878 44.7513 4.45855 44.768 4.57522C44.8012 4.80856 44.8438 5.1496 44.8818 5.584C44.9579 6.45268 45.0157 7.69548 44.9438 9.19756C44.8001 12.2009 44.1376 16.2471 42.06 20.4122C40.2953 23.9504 37.5572 26.655 35.2694 28.4719C34.1243 29.3812 33.0887 30.0707 32.3388 30.5333C32.2561 30.5842 32.1769 30.6325 32.1013 30.678C32.1948 30.6714 32.2934 30.6638 32.3971 30.6553C33.2817 30.5827 34.5289 30.4373 35.9756 30.1465C38.8721 29.5641 42.552 28.4019 45.7252 26.0869C49.4876 23.342 51.928 20.0669 53.428 17.4763C54.1778 16.1814 54.6918 15.0589 55.018 14.2615C55.181 13.8629 55.297 13.5457 55.372 13.329C55.3748 13.3211 55.3774 13.3134 55.3801 13.3057C55.8304 13.9221 56.2572 14.5563 56.6591 15.2069C56.5837 15.3807 56.4918 15.5848 56.3825 15.8154C56.0048 16.6123 55.4191 17.7267 54.5851 19.0019C52.9175 21.5518 50.2536 24.75 46.2696 27.3372C42.8853 29.535 39.0622 30.5133 36.0949 30.9438C34.6096 31.1593 33.3347 31.2381 32.4302 31.2631C32.3116 31.2664 32.1993 31.2687 32.0938 31.2703C32.1733 31.3088 32.2574 31.349 32.3459 31.3907C33.1278 31.759 34.2515 32.2414 35.6156 32.6959C38.3467 33.606 42.0259 34.3997 45.8491 33.957C50.3823 33.4322 54.0636 31.8085 56.6125 30.3148C57.8866 29.5681 58.8765 28.8547 59.5467 28.3289C59.8818 28.0661 60.1369 27.8502 60.3075 27.7007C60.3928 27.626 60.457 27.5678 60.4995 27.5287L60.5227 27.5073L60.547 27.4846L60.5584 27.4738L60.5615 27.4708L60.7443 27.6607C60.8075 27.7262 60.8488 27.7691 60.8758 27.7972C60.8787 27.8284 60.8815 27.8596 60.8843 27.8908L60.8565 27.9166C60.8187 27.9514 60.7659 27.9993 60.6985 28.0589L60.7967 28.1644C60.8525 28.2243 60.8909 28.2656 60.9174 28.2941C60.9202 28.3305 60.9228 28.367 60.9254 28.4034L60.9045 28.4222C60.8674 28.4552 60.816 28.5002 60.7508 28.5561L60.8394 28.6545C60.8886 28.7091 60.9241 28.7486 60.9497 28.777C60.9522 28.8187 60.9545 28.8603 60.9568 28.9021C60.9524 28.9058 60.9478 28.9098 60.9429 28.914C60.896 28.9544 60.8266 29.0131 60.7354 29.0878L60.7238 29.0973L60.882 29.2804C60.9237 29.3288 60.9554 29.3654 60.9793 29.3932C60.9811 29.4416 60.9828 29.49 60.9844 29.5385C60.983 29.5397 60.9815 29.5409 60.98 29.5421C60.9323 29.5815 60.8617 29.6388 60.7689 29.7115C60.5835 29.857 60.3094 30.0644 59.9522 30.3145C59.2379 30.8147 58.1904 31.4861 56.8536 32.1749C54.1806 33.5521 50.345 35.0014 45.6989 35.2849C41.7522 35.5257 38.0407 34.5069 35.3233 33.4341C33.9631 32.8972 32.8482 32.3452 32.0727 31.927C31.9821 31.8782 31.8961 31.8311 31.8149 31.7862C31.8636 31.858 31.9153 31.9334 31.97 32.0121C32.463 32.722 33.195 33.7015 34.149 34.7772C36.0591 36.9308 38.8486 39.4576 42.3809 40.9858C46.5692 42.7977 50.5692 43.2321 53.5235 43.2129C55.0003 43.2033 56.2143 43.0803 57.0576 42.9601C57.4793 42.9 57.8081 42.8406 58.0306 42.7964C58.1418 42.7744 58.2265 42.7561 58.2829 42.7435C58.3111 42.7372 58.3322 42.7323 58.346 42.729L58.3613 42.7254L58.3656 42.7243C58.3656 42.7243 58.3655 42.7243 58.4289 42.9801C58.4412 43.0296 58.4511 43.0696 58.4591 43.1018C58.4358 43.1546 58.4123 43.2073 58.3887 43.26C58.3394 43.2709 58.273 43.2853 58.1901 43.3021L58.2224 43.4425C58.2338 43.4919 58.243 43.5318 58.2504 43.564C58.226 43.6166 58.2016 43.6692 58.177 43.7217C58.1293 43.7315 58.0657 43.7441 57.9868 43.7587L58.0143 43.8882C58.0248 43.9374 58.0333 43.9773 58.0401 44.0095C58.0148 44.062 57.9894 44.1144 57.9638 44.1667C57.9033 44.1781 57.8175 44.1935 57.7076 44.2115L57.6928 44.2139L57.7382 44.4516C57.7476 44.5007 57.7552 44.5405 57.7613 44.5728C57.7348 44.625 57.7081 44.6771 57.6813 44.7291C57.6206 44.7392 57.5346 44.7528 57.4248 44.7684C57.1914 44.8017 56.8504 44.8443 56.4159 44.8823C55.5472 44.9583 54.3043 45.0161 52.8022 44.9442C49.7986 44.8005 45.7522 44.1379 41.5868 42.0605C38.0484 40.2958 35.3436 37.5579 33.5267 35.2702C32.6172 34.1252 31.9277 33.0897 31.4651 32.3398C31.4112 32.2523 31.3603 32.1686 31.3124 32.0891C31.319 32.1711 31.3263 32.2573 31.3346 32.3475C31.4132 33.2085 31.574 34.4392 31.9027 35.9122C32.5603 38.8588 33.8887 42.7698 36.5707 46.6301C38.6308 49.5954 41.7313 51.8109 44.3331 53.2886C45.6316 54.0261 46.8004 54.5768 47.6441 54.9428C47.6764 54.9569 47.7083 54.9707 47.7397 54.9842C47.1136 55.3989 46.4707 55.791 45.8122 56.1594C45.0062 55.7469 43.9613 55.1711 42.8191 54.4376C40.2727 52.8023 37.2207 50.3698 35.2635 47.198C32.7493 43.1235 31.6158 39.0748 31.1106 36.0454C30.8579 34.5304 30.7622 33.269 30.7297 32.3848C30.7263 32.2923 30.7236 32.2039 30.7215 32.1198C30.6938 32.1785 30.6653 32.2398 30.636 32.3035C30.2843 33.0684 29.8232 34.1858 29.3883 35.5908C28.5184 38.4013 27.7548 42.3574 28.178 46.9417C28.5031 50.463 30.0864 53.8679 31.6008 56.4035C32.3565 57.6689 33.0919 58.7125 33.638 59.4394C33.7539 59.5937 33.8613 59.7336 33.9585 59.8584C33.2322 59.9283 32.4984 59.9727 31.7579 59.9908C31.7235 59.9401 31.6882 59.8877 31.6521 59.8338C31.1382 59.0663 30.4505 57.9681 29.7541 56.6438C28.364 53.9999 26.9277 50.4324 26.79 46.7846C26.6131 42.0988 27.6084 38.1201 28.6473 35.3133C29.1668 33.9096 29.6978 32.7979 30.0996 32.0357C30.1393 31.9605 30.1777 31.8887 30.2147 31.8203ZM19.2142 58.0203C18.531 57.7219 17.8613 57.3983 17.2063 57.0507C17.2177 57.1754 17.2287 57.2853 17.2387 57.3794C17.2521 57.5061 17.2636 57.604 17.2718 57.6707C17.2723 57.6747 17.2728 57.6786 17.2733 57.6825C17.3209 57.707 17.3686 57.7314 17.4163 57.7557C17.4501 57.751 17.4927 57.7451 17.5462 57.7377L17.7999 57.7024C17.8137 57.8094 17.8255 57.8935 17.834 57.9527L17.8358 57.965C17.8836 57.9884 17.9315 58.0116 17.9795 58.0348C18.0133 58.0294 18.056 58.0225 18.1097 58.0139L18.2516 57.9912C18.2624 58.0628 18.2715 58.1211 18.2787 58.1655L18.2807 58.1781C18.3288 58.2006 18.3769 58.223 18.4251 58.2453C18.4589 58.2393 18.5016 58.2317 18.5553 58.2222L18.7087 58.195C18.7212 58.2701 18.7318 58.331 18.74 58.3769L18.7424 58.3897C18.7907 58.4114 18.839 58.4329 18.8874 58.4543C18.9212 58.4477 18.9638 58.4394 19.0176 58.4289L19.2741 58.379L19.2763 58.3784L19.2753 58.3733L19.272 58.3556L19.2662 58.324L19.259 58.2842C19.2482 58.2238 19.2328 58.135 19.2142 58.0203ZM32.4508 60.9655C32.4495 60.9639 32.4483 60.9622 32.447 60.9606C32.4066 60.9069 32.3476 60.8278 32.2727 60.7249C32.2162 60.6473 32.1507 60.5561 32.0771 60.4521C32.8259 60.4252 33.5675 60.3703 34.301 60.2886C34.3758 60.3803 34.4344 60.4507 34.4745 60.4982C34.4952 60.5228 34.511 60.5413 34.5215 60.5535L34.5332 60.5672L34.5366 60.5711L34.535 60.5728L34.3379 60.7442L34.2429 60.8268C34.1875 60.8327 34.1321 60.8385 34.0767 60.8442L34.0715 60.838C34.0414 60.8023 34.0018 60.7549 33.9534 60.6962L33.8342 60.7964C33.7954 60.829 33.764 60.8554 33.7387 60.8767C33.6828 60.8817 33.6269 60.8866 33.571 60.8914L33.5663 60.8856C33.5379 60.8508 33.5008 60.8048 33.4557 60.7482L33.3442 60.8389C33.3052 60.8706 33.2736 60.8963 33.248 60.917C33.1917 60.9212 33.1354 60.9252 33.079 60.9291C33.0777 60.9273 33.0762 60.9255 33.0748 60.9237C33.0378 60.8767 32.9856 60.8098 32.9202 60.724L32.7181 60.8814C32.6788 60.912 32.6469 60.9368 32.621 60.957C32.5643 60.96 32.5076 60.9628 32.4508 60.9655ZM48.564 55.3236C47.9512 55.7669 47.321 56.1876 46.6746 56.5844C46.5086 56.5059 46.3189 56.4141 46.1087 56.3092C46.7501 55.9255 47.3758 55.518 47.9844 55.0881C48.2125 55.1838 48.4076 55.2623 48.564 55.3236Z" fill="white"/>
</svg>
