<svg width="67" height="67" viewBox="0 0 67 67" fill="none" xmlns="http://www.w3.org/2000/svg">
<path d="M65.8275 33.854C65.8275 51.9987 51.3403 66.7079 33.4694 66.7079C15.5985 66.7079 1.11133 51.9987 1.11133 33.854C1.11133 15.7092 15.5985 1 33.4694 1C51.3403 1 65.8275 15.7092 65.8275 33.854Z" fill="#44014E"/>
<path fill-rule="evenodd" clip-rule="evenodd" d="M33.4694 1.29204C15.7574 1.29204 1.39895 15.8705 1.39895 33.854C1.39895 51.8374 15.7574 66.4159 33.4694 66.4159C51.1815 66.4159 65.5399 51.8374 65.5399 33.854C65.5399 15.8705 51.1815 1.29204 33.4694 1.29204ZM0.82373 33.854C0.82373 15.5479 15.4397 0.707965 33.4694 0.707965C51.4991 0.707965 66.1151 15.5479 66.1151 33.854C66.1151 52.16 51.4991 67 33.4694 67C15.4397 67 0.82373 52.16 0.82373 33.854Z" fill="white"/>
<path fill-rule="evenodd" clip-rule="evenodd" d="M14.1697 7.80611C14.1697 7.80612 14.1698 7.80614 14.2488 7.52781C14.3278 7.24947 14.328 7.24951 14.3281 7.24955L14.3286 7.24969L14.3301 7.25014L14.3354 7.2517C14.3399 7.25304 14.3463 7.25499 14.3548 7.25755C14.3716 7.26268 14.3962 7.27027 14.4282 7.28044C14.4922 7.30076 14.5859 7.33136 14.7068 7.37305C14.9485 7.45643 15.2989 7.58418 15.7372 7.76282C16.6137 8.12005 17.8427 8.68107 19.2587 9.49808C22.0899 11.1317 25.6744 13.792 28.6808 17.8984C31.2347 21.3866 32.5065 25.4146 33.1411 28.5599C33.4587 30.1343 33.6176 31.4919 33.6971 32.4568C33.7369 32.9394 33.7568 33.3241 33.7668 33.5889C33.7718 33.7213 33.7743 33.8238 33.7756 33.8936C33.7762 33.9285 33.7765 33.9552 33.7767 33.9734C33.7768 33.9825 33.7768 33.9895 33.7768 33.9943L33.7769 33.9999L33.7769 34.0015V34.0019C33.7769 34.0021 33.7769 34.0022 33.4914 34.0022H33.7769V34.0032L33.7769 34.0041V34.0042L33.7769 34.0049L33.7768 34.0088C33.7768 34.0124 33.7768 34.0181 33.7769 34.0258C33.7769 34.0411 33.7771 34.0645 33.7776 34.0957C33.7786 34.1582 33.7807 34.2518 33.7855 34.3745C33.7951 34.6198 33.8152 34.9813 33.8575 35.4419C33.9419 36.3631 34.1146 37.68 34.4676 39.2561C35.1737 42.4091 36.6001 46.5939 39.48 50.7245C41.6922 53.8973 45.0215 56.268 47.8154 57.8492C49.2097 58.6383 50.4648 59.2275 51.3707 59.6192C51.8236 59.815 52.1889 59.9613 52.4404 60.0585C52.5661 60.1071 52.6634 60.1433 52.7289 60.1674C52.7616 60.1794 52.7864 60.1883 52.8029 60.1942C52.8111 60.1971 52.8173 60.1993 52.8213 60.2007L52.8266 60.2026L52.8268 60.2027L52.826 60.2051C52.8228 60.2143 52.8076 60.2591 52.7339 60.4766C52.6411 60.7505 52.641 60.7505 52.6409 60.7504L52.6404 60.7503L52.6389 60.7497L52.6335 60.7478C52.6289 60.7462 52.622 60.7438 52.6131 60.7406C52.5953 60.7342 52.569 60.7247 52.5348 60.7122C52.4664 60.6871 52.3661 60.6497 52.2372 60.5999C51.9794 60.5003 51.6072 60.3512 51.1469 60.1522C50.2265 59.7542 48.9527 59.1562 47.5372 58.3551C44.7116 56.7559 41.2974 54.3342 39.0139 51.059C36.0805 46.8518 34.6291 42.5918 33.9108 39.3845C33.5515 37.7804 33.3753 36.4383 33.2889 35.4955C33.2457 35.0241 33.2249 34.6523 33.215 34.3974C33.21 34.27 33.2077 34.1717 33.2067 34.1048C33.2062 34.0713 33.206 34.0457 33.2059 34.0282C33.2058 34.0194 33.2058 34.0127 33.2059 34.008L33.2059 34.0026L33.2059 34.0022V34.0021L33.2059 34.0012L33.2059 33.9969C33.2058 33.993 33.2058 33.9869 33.2057 33.9786C33.2056 33.9622 33.2053 33.9373 33.2047 33.9042C33.2035 33.8381 33.2011 33.7395 33.1962 33.6111C33.1865 33.3542 33.1671 32.9783 33.1281 32.5051C33.0501 31.5585 32.894 30.2241 32.5817 28.6761C31.9564 25.5768 30.7083 21.6392 28.2225 18.2438C25.275 14.2179 21.7581 11.6067 18.9764 10.0016C17.5859 9.19936 16.3806 8.64935 15.5243 8.30038C15.0963 8.12591 14.7556 8.00177 14.523 7.92153C14.4067 7.88141 14.3174 7.85227 14.2576 7.8333C14.2278 7.82382 14.2053 7.81688 14.1905 7.81239C14.1832 7.81014 14.1777 7.80851 14.1743 7.80747L14.1705 7.80636L14.1697 7.80611Z" fill="white"/>
<path fill-rule="evenodd" clip-rule="evenodd" d="M29.6754 1.48932C29.6755 1.48935 29.6755 1.48939 29.8811 1.2883C30.0867 1.08721 30.0868 1.08731 30.0869 1.08743L30.0873 1.08778L30.0883 1.08894L30.0921 1.09296C30.0954 1.09641 30.1 1.10138 30.106 1.10788C30.1181 1.12086 30.1356 1.13992 30.1583 1.16497C30.2038 1.21508 30.2698 1.28918 30.354 1.38667C30.5222 1.58163 30.7626 1.8702 31.0542 2.24751C31.6372 3.00204 32.425 4.11213 33.2486 5.53897C34.8953 8.39192 36.6885 12.5171 37.2683 17.6019C37.7609 21.9214 36.8773 26.0577 35.8768 29.1058C35.376 30.6314 34.8446 31.8886 34.4379 32.7652C34.2345 33.2036 34.0622 33.5471 33.9404 33.7817C33.8795 33.899 33.8311 33.989 33.7978 34.0502C33.7812 34.0807 33.7683 34.104 33.7595 34.1199C33.755 34.1279 33.7516 34.1339 33.7493 34.1381L33.7466 34.1429L33.7458 34.1443L33.7456 34.1447C33.7455 34.1448 33.7454 34.1449 33.4982 34L33.7454 34.1449L33.7449 34.1458L33.7445 34.1466L33.7444 34.1466L33.7441 34.1473L33.7421 34.1507C33.7404 34.1538 33.7376 34.1587 33.7338 34.1654C33.7263 34.1787 33.7149 34.1991 33.7 34.2264C33.67 34.281 33.6258 34.3632 33.5695 34.4719C33.4569 34.6894 33.2962 35.0129 33.1057 35.4335C32.7249 36.2747 32.2255 37.5037 31.7544 39.0488C30.8122 42.1397 29.9851 46.4905 30.4435 51.5321C30.7956 55.4048 32.5105 59.1493 34.1507 61.9379C34.9693 63.3296 35.7658 64.4773 36.3573 65.2767C36.6529 65.6763 36.8972 65.9885 37.0671 66.2004C37.1521 66.3063 37.2184 66.3871 37.2633 66.4412C37.2857 66.4682 37.3028 66.4886 37.3142 66.502C37.3198 66.5087 37.3241 66.5137 37.3268 66.517L37.3305 66.5213L37.3307 66.5215L37.3288 66.5231C37.3215 66.5296 37.2863 66.5607 37.1153 66.7117C36.8999 66.902 36.8998 66.9019 36.8997 66.9018L36.8994 66.9014L36.8984 66.9002L36.8947 66.8958C36.8914 66.892 36.8867 66.8865 36.8806 66.8792C36.8682 66.8646 36.8502 66.8431 36.8267 66.8148C36.7799 66.7584 36.7114 66.675 36.6244 66.5664C36.4502 66.3493 36.2013 66.0311 35.9008 65.6249C35.2998 64.8128 34.4915 63.6479 33.6605 62.2352C32.0016 59.4148 30.2385 55.5829 29.875 51.5854C29.4081 46.4502 30.2505 42.0216 31.209 38.8774C31.6884 37.3049 32.1972 36.0523 32.587 35.1914C32.7819 34.7609 32.9471 34.4282 33.0641 34.2022C33.1226 34.0892 33.169 34.0029 33.2011 33.9444C33.2171 33.9152 33.2296 33.8928 33.2382 33.8776C33.2424 33.87 33.2458 33.8642 33.2481 33.8601L33.2508 33.8554L33.2509 33.8551L33.251 33.855L33.2515 33.8542L33.2536 33.8505C33.2555 33.8471 33.2585 33.8418 33.2624 33.8346C33.2704 33.8203 33.2824 33.7985 33.2982 33.7696C33.3298 33.7117 33.3763 33.625 33.4354 33.5112C33.5535 33.2837 33.722 32.948 33.9214 32.5182C34.3203 31.6583 34.8428 30.4225 35.3351 28.9225C36.321 25.9191 37.1806 21.8731 36.7011 17.6686C36.1326 12.6835 34.3739 8.63514 32.756 5.83209C31.9472 4.43095 31.1745 3.34242 30.6049 2.60533C30.3202 2.23684 30.0864 1.95634 29.9245 1.7687C29.8436 1.67488 29.7806 1.60429 29.7382 1.55753C29.717 1.53416 29.701 1.51674 29.6904 1.50536C29.6851 1.49966 29.6812 1.49548 29.6787 1.49282L29.676 1.48996L29.6754 1.48932Z" fill="white"/>
<path fill-rule="evenodd" clip-rule="evenodd" d="M46.1976 3.90426C46.1976 3.90429 46.1976 3.90435 46.4747 3.83458C46.7518 3.76481 46.7518 3.76494 46.7518 3.7651L46.7519 3.76558L46.7523 3.76713L46.7536 3.77254C46.7547 3.77717 46.7563 3.78383 46.7583 3.79251C46.7624 3.80988 46.7682 3.83529 46.7755 3.86851C46.7901 3.93496 46.8109 4.03269 46.8357 4.15982C46.8854 4.41407 46.9515 4.78604 47.0182 5.2608C47.1515 6.21021 47.2871 7.57152 47.2977 9.22531C47.3189 12.532 46.8403 17.0148 44.8385 21.7128C43.1379 25.7036 40.3357 28.8372 37.9683 30.969C36.7833 32.036 35.704 32.855 34.9201 33.4077C34.5281 33.6841 34.2097 33.8941 33.9886 34.0354C33.8781 34.1061 33.7919 34.1595 33.733 34.1956C33.7035 34.2136 33.6809 34.2272 33.6654 34.2365C33.6577 34.2411 33.6517 34.2446 33.6476 34.2471L33.6429 34.2499L33.6415 34.2507L33.6411 34.2509C33.641 34.251 33.6409 34.251 33.4982 34L33.6409 34.251L33.6401 34.2515L33.6393 34.252L33.6392 34.252L33.6386 34.2524L33.6352 34.2543C33.6322 34.2561 33.6273 34.259 33.6208 34.2628C33.6077 34.2706 33.5878 34.2824 33.5614 34.2985C33.5086 34.3306 33.4298 34.3793 33.3275 34.4449C33.1229 34.5761 32.8244 34.7747 32.4524 35.0422C31.7083 35.5774 30.6706 36.3881 29.5018 37.4871C27.1636 39.6856 24.3048 43.0336 22.219 47.6325C20.6168 51.1651 20.2579 55.2785 20.3052 58.5262C20.3287 60.147 20.4533 61.5453 20.5719 62.5379C20.6312 63.034 20.689 63.4284 20.7318 63.6982C20.7532 63.833 20.7708 63.9367 20.7831 64.0063C20.7892 64.0411 20.794 64.0674 20.7972 64.0848C20.7988 64.0935 20.8 64.1 20.8008 64.1042L20.8019 64.1098L20.8019 64.11L20.7994 64.1105C20.79 64.1124 20.7442 64.1214 20.5217 64.1654C20.2415 64.2209 20.2414 64.2208 20.2414 64.2206L20.2413 64.2202L20.241 64.2186L20.24 64.2129C20.239 64.2079 20.2377 64.2007 20.2359 64.1913C20.2325 64.1724 20.2274 64.1446 20.221 64.1082C20.2082 64.0356 20.19 63.9286 20.1681 63.7904C20.1242 63.5139 20.0654 63.112 20.0051 62.6077C19.8846 61.5993 19.7582 60.1801 19.7343 58.5348C19.6865 55.2501 20.0466 51.0365 21.7004 47.3901C23.8249 42.7058 26.7353 39.2982 29.1138 37.0618C30.3033 35.9433 31.3608 35.1169 32.1223 34.5692C32.5031 34.2953 32.8101 34.091 33.0226 33.9547C33.1289 33.8866 33.2117 33.8354 33.2683 33.801C33.2966 33.7838 33.3183 33.7708 33.3332 33.762C33.3407 33.7576 33.3464 33.7542 33.3504 33.7519L33.3551 33.7492L33.3554 33.749L33.3555 33.7489L33.3563 33.7485L33.3599 33.7463C33.3633 33.7443 33.3685 33.7413 33.3755 33.7371C33.3894 33.7287 33.4106 33.716 33.4385 33.6989C33.4943 33.6648 33.5773 33.6133 33.6845 33.5448C33.8989 33.4078 34.21 33.2026 34.5944 32.9315C35.3634 32.3894 36.4244 31.5844 37.5895 30.5353C39.9222 28.4347 42.6592 25.3672 44.3144 21.4826C46.2771 16.8767 46.7476 12.478 46.7268 9.22909C46.7164 7.60508 46.5832 6.27008 46.453 5.34262C46.3879 4.87896 46.3235 4.51736 46.2757 4.27265C46.2518 4.15031 46.232 4.0572 46.2183 3.99519C46.2115 3.96419 46.2062 3.94096 46.2026 3.92575C46.2009 3.91814 46.1995 3.91253 46.1987 3.90896L46.1978 3.90512L46.1976 3.90426Z" fill="white"/>
<path fill-rule="evenodd" clip-rule="evenodd" d="M59.2968 14.3752C59.2968 14.3752 59.2968 14.3753 59.5709 14.4556C59.8451 14.5358 59.845 14.5359 59.845 14.5361L59.8448 14.5366L59.8444 14.5381L59.8429 14.5434C59.8415 14.548 59.8396 14.5546 59.8371 14.5631C59.832 14.5802 59.8246 14.6052 59.8146 14.6377C59.7945 14.7027 59.7644 14.7978 59.7233 14.9205C59.6412 15.166 59.5154 15.5217 59.3395 15.9667C58.9876 16.8567 58.4351 18.1045 57.6304 19.5422C56.0215 22.4168 53.4013 26.0563 49.3569 29.1088C45.9213 31.7018 41.9541 32.993 38.8563 33.6374C37.3057 33.9599 35.9685 34.1212 35.0182 34.2019C34.5429 34.2423 34.164 34.2625 33.9032 34.2727C33.7728 34.2778 33.6718 34.2803 33.6031 34.2816C33.5687 34.2822 33.5424 34.2826 33.5245 34.2827C33.5155 34.2828 33.5086 34.2828 33.5039 34.2829L33.4984 34.2829L33.4969 34.2829L33.4964 34.2829C33.4962 34.2829 33.4961 34.2829 33.4961 33.993L33.4961 34.2829L33.4952 34.2829L33.4943 34.2829L33.4942 34.2829L33.4934 34.2829L33.4896 34.2829C33.4861 34.2829 33.4805 34.2829 33.4729 34.2829C33.4578 34.283 33.4347 34.2831 33.404 34.2836C33.3425 34.2846 33.2503 34.2868 33.1295 34.2917C32.8878 34.3014 32.5318 34.3218 32.0782 34.3647C31.1709 34.4504 29.8739 34.6258 28.3215 34.9842C25.2161 35.7011 21.0945 37.1494 17.0262 40.0735C13.9013 42.3195 11.5664 45.6998 10.0091 48.5366C9.23186 49.9523 8.65155 51.2265 8.26576 52.1464C8.07291 52.6062 7.92881 52.9771 7.83312 53.2324C7.78528 53.3601 7.74955 53.4589 7.7259 53.5254C7.71407 53.5586 7.70526 53.5838 7.69947 53.6005C7.69658 53.6088 7.69443 53.6151 7.69304 53.6191L7.69118 53.6246L7.69112 53.6248L7.68876 53.6239C7.67967 53.6207 7.63554 53.6053 7.42135 53.5305C7.15158 53.4362 7.15161 53.4361 7.15165 53.436L7.1518 53.4355L7.15231 53.434L7.15419 53.4285C7.15582 53.4238 7.1582 53.4169 7.16135 53.4078C7.16763 53.3897 7.17695 53.363 7.1893 53.3283C7.21401 53.2588 7.25086 53.157 7.2999 53.0261C7.39798 52.7644 7.54485 52.3865 7.74087 51.9191C8.13282 50.9846 8.7218 49.6913 9.51079 48.2541C11.0859 45.3851 13.471 41.9186 16.6967 39.6002C20.8405 36.6218 25.0362 35.1482 28.1951 34.4188C29.7749 34.0541 31.0968 33.8752 32.0254 33.7874C32.4897 33.7436 32.8558 33.7225 33.1069 33.7124C33.2324 33.7073 33.3292 33.705 33.3951 33.704C33.428 33.7034 33.4533 33.7032 33.4705 33.7032C33.4791 33.7031 33.4858 33.7031 33.4904 33.7031L33.4958 33.7031L33.4961 33.7031L33.4962 33.7031L33.4971 33.7031L33.5013 33.7031C33.5052 33.7031 33.5112 33.7031 33.5193 33.703C33.5355 33.7028 33.5601 33.7025 33.5926 33.7019C33.6577 33.7007 33.7549 33.6983 33.8814 33.6934C34.1343 33.6835 34.5046 33.6638 34.9706 33.6242C35.9029 33.545 37.2172 33.3865 38.7418 33.0694C41.7944 32.4345 45.6725 31.1673 49.0167 28.6434C52.9818 25.6507 55.5536 22.0799 57.1344 19.2556C57.9246 17.8438 58.4663 16.62 58.81 15.7506C58.9818 15.316 59.1041 14.9702 59.1831 14.7339C59.2227 14.6158 59.2514 14.5252 59.27 14.4645C59.2794 14.4342 59.2862 14.4114 59.2906 14.3964C59.2928 14.3889 59.2945 14.3834 59.2955 14.3799L59.2966 14.3761L59.2968 14.3752Z" fill="white"/>
<path fill-rule="evenodd" clip-rule="evenodd" d="M65.5181 30.1187C65.5181 30.1187 65.518 30.1187 65.7161 30.3275C65.9142 30.5362 65.9141 30.5363 65.9139 30.5365L65.9136 30.5368L65.9125 30.5379L65.9085 30.5417C65.9051 30.545 65.9002 30.5498 65.8938 30.5559C65.881 30.5681 65.8622 30.5859 65.8376 30.609C65.7882 30.6551 65.7152 30.7222 65.6192 30.8076C65.4272 30.9784 65.143 31.2225 64.7714 31.5185C64.0282 32.1105 62.9349 32.9104 61.5296 33.7466C58.7197 35.4186 54.6568 37.2392 49.6487 37.8279C45.3944 38.328 41.3205 37.4309 38.3185 36.4151C36.8159 35.9066 35.5777 35.367 34.7143 34.9541C34.2825 34.7476 33.9442 34.5727 33.7132 34.449C33.5977 34.3871 33.5089 34.3381 33.4487 34.3042C33.4186 34.2873 33.3957 34.2743 33.38 34.2653C33.3722 34.2608 33.3662 34.2573 33.3621 34.255L33.3574 34.2522L33.356 34.2514L33.3556 34.2512C33.3555 34.2511 33.3554 34.251 33.4981 34L33.3554 34.251L33.3545 34.2505L33.3538 34.2501L33.3537 34.25L33.353 34.2496L33.3498 34.2477C33.3467 34.2459 33.3418 34.2431 33.3353 34.2392C33.3221 34.2316 33.3021 34.2201 33.2752 34.2049C33.2214 34.1745 33.1404 34.1295 33.0333 34.0724C32.8191 33.958 32.5005 33.7949 32.0863 33.6015C31.2577 33.2148 30.0474 32.7078 28.5256 32.2295C25.4813 31.2728 21.1962 30.4331 16.2306 30.8985C12.4164 31.256 8.72841 32.9972 5.9819 34.6625C4.61122 35.4936 3.48082 36.3023 2.69353 36.9029C2.29999 37.2031 1.99245 37.4511 1.78378 37.6236C1.67946 37.7099 1.59987 37.7772 1.54662 37.8228C1.52 37.8456 1.49997 37.8629 1.48672 37.8745C1.4801 37.8802 1.47517 37.8845 1.47197 37.8873L1.46768 37.8911L1.46754 37.8912L1.4659 37.8893C1.45959 37.8819 1.42895 37.8461 1.28017 37.6725C1.0928 37.4538 1.09287 37.4538 1.09298 37.4537L1.09332 37.4534L1.09451 37.4523L1.09884 37.4485C1.10259 37.4452 1.10807 37.4404 1.11526 37.4342C1.12963 37.4217 1.15082 37.4034 1.17862 37.3796C1.23423 37.332 1.31632 37.2625 1.42326 37.1741C1.63714 36.9973 1.95054 36.7446 2.35057 36.4394C3.15042 35.8293 4.2977 35.0085 5.68915 34.1648C8.46691 32.4805 12.241 30.6903 16.1782 30.3213C21.2359 29.8472 25.5976 30.7025 28.6944 31.6757C30.2431 32.1625 31.4768 32.6791 32.3248 33.0748C32.7488 33.2727 33.0764 33.4405 33.299 33.5592C33.4103 33.6186 33.4953 33.6658 33.5529 33.6984C33.5817 33.7146 33.6037 33.7273 33.6187 33.736C33.6262 33.7403 33.6319 33.7437 33.6359 33.746L33.6406 33.7488L33.6408 33.749L33.641 33.749L33.6417 33.7495L33.6454 33.7516C33.6488 33.7536 33.654 33.7566 33.6611 33.7606C33.6752 33.7687 33.6966 33.781 33.7251 33.797C33.7821 33.829 33.8675 33.8762 33.9795 33.9362C34.2036 34.0562 34.5342 34.2272 34.9576 34.4297C35.8045 34.8347 37.0216 35.3652 38.499 35.8651C41.4571 36.866 45.442 37.7388 49.583 37.252C54.4929 36.6748 58.4802 34.8892 61.2409 33.2464C62.6209 32.4253 63.693 31.6407 64.419 31.0624C64.7819 30.7733 65.0581 30.536 65.243 30.3716C65.3354 30.2894 65.4049 30.2254 65.4509 30.1824C65.474 30.1609 65.4911 30.1446 65.5023 30.1339C65.5079 30.1285 65.512 30.1245 65.5147 30.122L65.5175 30.1193L65.5181 30.1187Z" fill="white"/>
<path fill-rule="evenodd" clip-rule="evenodd" d="M63.1398 46.894C63.1398 46.894 63.1397 46.894 63.2084 47.1754C63.2771 47.4567 63.277 47.4567 63.2768 47.4568L63.2764 47.4569L63.2748 47.4573L63.2695 47.4586C63.265 47.4597 63.2584 47.4613 63.2498 47.4634C63.2327 47.4675 63.2077 47.4734 63.175 47.4808C63.1095 47.4957 63.0133 47.5167 62.8881 47.542C62.6377 47.5924 62.2713 47.6595 61.8037 47.7272C60.8686 47.8626 59.5279 48.0003 57.899 48.011C54.6422 48.0326 50.2271 47.5467 45.6 45.5141C41.6694 43.7875 38.5831 40.9424 36.4836 38.5386C35.4327 37.3355 34.626 36.2396 34.0817 35.4437C33.8094 35.0457 33.6026 34.7224 33.4634 34.498C33.3939 34.3858 33.3412 34.2982 33.3057 34.2384C33.2879 34.2085 33.2745 34.1855 33.2654 34.1698C33.2608 34.1619 33.2574 34.1559 33.255 34.1517L33.2522 34.1469L33.2514 34.1456L33.2512 34.1452C33.2511 34.145 33.2511 34.1449 33.4983 34L33.2511 34.1449L33.2506 34.1441L33.2501 34.1433L33.2501 34.1432L33.2497 34.1425L33.2478 34.1392C33.246 34.1361 33.2433 34.1312 33.2394 34.1245C33.2318 34.1112 33.2201 34.091 33.2043 34.0642C33.1727 34.0106 33.1247 33.9306 33.0601 33.8267C32.9309 33.6189 32.7353 33.3159 32.4718 32.9382C31.9447 32.1827 31.1462 31.1291 30.0638 29.9424C27.8985 27.5683 24.6011 24.6657 20.0715 22.548C16.5923 20.9213 12.5409 20.5569 9.34228 20.6048C7.74595 20.6287 6.36875 20.7552 5.39119 20.8756C4.90253 20.9358 4.51407 20.9945 4.2484 21.038C4.11558 21.0597 4.01348 21.0776 3.94492 21.0901C3.91065 21.0963 3.88476 21.1011 3.86762 21.1044C3.85905 21.106 3.85266 21.1072 3.8485 21.108L3.84294 21.1091L3.84275 21.1092L3.84227 21.1067C3.84043 21.0971 3.83152 21.0505 3.78818 20.8246C3.7336 20.5401 3.7337 20.5401 3.73384 20.5401L3.73428 20.54L3.73583 20.5397L3.74145 20.5386C3.74631 20.5377 3.75342 20.5363 3.76272 20.5345C3.78132 20.531 3.8087 20.5259 3.8445 20.5194C3.9161 20.5064 4.0214 20.4879 4.15756 20.4656C4.42986 20.4211 4.82571 20.3613 5.32242 20.3001C6.31558 20.1778 7.71333 20.0494 9.33385 20.0252C12.5689 19.9767 16.7189 20.3423 20.3104 22.0214C24.9239 24.1785 28.2801 27.1335 30.4827 29.5485C31.5843 30.7562 32.3983 31.8299 32.9377 32.6031C33.2075 32.9897 33.4087 33.3013 33.5429 33.5172C33.61 33.6251 33.6604 33.7091 33.6943 33.7666C33.7112 33.7953 33.724 33.8174 33.7327 33.8325C33.7371 33.8401 33.7404 33.846 33.7427 33.85L33.7454 33.8548L33.7455 33.855L33.7456 33.8552L33.746 33.856L33.7482 33.8597C33.7501 33.8631 33.7531 33.8683 33.7573 33.8754C33.7655 33.8896 33.778 33.911 33.7948 33.9394C33.8284 33.9961 33.8791 34.0803 33.9466 34.1891C34.0816 34.4068 34.2837 34.7228 34.5506 35.113C35.0846 35.8938 35.8774 36.971 36.9107 38.154C38.9796 40.5225 42.0008 43.3014 45.8267 44.982C50.3631 46.9748 54.6955 47.4525 57.8953 47.4313C59.4948 47.4208 60.8097 47.2855 61.7231 47.1533C62.1798 47.0872 62.5359 47.0219 62.777 46.9733C62.8975 46.9491 62.9892 46.929 63.0502 46.9151C63.0808 46.9082 63.1036 46.9028 63.1186 46.8992C63.1261 46.8974 63.1316 46.896 63.1352 46.8952L63.1389 46.8942L63.1398 46.894Z" fill="white"/>
</svg>
