<svg width="149" height="26" viewBox="0 0 149 26" fill="none" xmlns="http://www.w3.org/2000/svg">
<path d="M18.655 24.99H13.44L8.505 16.485H4.83V24.99H0V0.49H9.8C12.0633 0.49 13.9883 1.28333 15.575 2.87C17.1617 4.45667 17.955 6.37 17.955 8.61C17.955 10.1267 17.5233 11.5383 16.66 12.845C15.7967 14.1283 14.6533 15.0967 13.23 15.75L18.655 24.99ZM9.8 5.005H4.83V12.25H9.8C10.71 12.25 11.4917 11.9 12.145 11.2C12.7983 10.4767 13.125 9.61333 13.125 8.61C13.125 7.60667 12.7983 6.755 12.145 6.055C11.4917 5.355 10.71 5.005 9.8 5.005Z" fill="#272D4E"/>
<path d="M21.499 24.99V0.49H26.329V24.99H21.499Z" fill="#272D4E"/>
<path d="M42.4843 25.48C38.8209 25.48 35.7759 24.255 33.3493 21.805C30.9459 19.3783 29.7443 16.3567 29.7443 12.74C29.7443 9.1 30.9459 6.07833 33.3493 3.675C35.7759 1.225 38.8209 0 42.4843 0C44.7009 0 46.7426 0.525 48.6093 1.575C50.4993 2.60167 51.9693 4.00167 53.0193 5.775L48.8543 8.19C48.2476 7.09333 47.3843 6.24167 46.2643 5.635C45.1443 5.005 43.8843 4.69 42.4843 4.69C40.1043 4.69 38.1793 5.43667 36.7093 6.93C35.2626 8.44667 34.5393 10.3833 34.5393 12.74C34.5393 15.0733 35.2626 16.9983 36.7093 18.515C38.1793 20.0083 40.1043 20.755 42.4843 20.755C43.8843 20.755 45.1443 20.4517 46.2643 19.845C47.4076 19.215 48.2709 18.3633 48.8543 17.29L53.0193 19.705C51.9693 21.4783 50.4993 22.89 48.6093 23.94C46.7426 24.9667 44.7009 25.48 42.4843 25.48Z" fill="#272D4E"/>
<path d="M69.9163 10.22V0.49H74.7113V24.99H69.9163V14.84H60.8163V24.99H55.9863V0.49H60.8163V10.22H69.9163Z" fill="#272D4E"/>
<path d="M98.2677 0.49H103.238V24.99H98.4427V9.1L91.5477 20.475H90.9877L84.0927 9.135V24.99H79.2627V0.49H84.2327L91.2677 12.075L98.2677 0.49Z" fill="#272D4E"/>
<path d="M107.803 24.99V0.49H112.633V24.99H107.803Z" fill="#272D4E"/>
<path d="M121.998 0.49V20.37H131.343V24.99H117.168V0.49H121.998Z" fill="#272D4E"/>
<path d="M138.917 0.49V20.37H148.262V24.99H134.087V0.49H138.917Z" fill="#272D4E"/>
</svg>
