<svg width="24" height="24" viewBox="0 0 24 24" fill="none" xmlns="http://www.w3.org/2000/svg">
<path d="M8.625 8.5H4.125C3.85978 8.5 3.60543 8.39464 3.41789 8.20711C3.23036 8.01957 3.125 7.76522 3.125 7.5V3C3.125 2.73478 3.23036 2.48043 3.41789 2.29289C3.60543 2.10536 3.85978 2 4.125 2C4.39022 2 4.64457 2.10536 4.83211 2.29289C5.01964 2.48043 5.125 2.73478 5.125 3V6.5H8.625C8.89022 6.5 9.14457 6.60536 9.33211 6.79289C9.51964 6.98043 9.625 7.23478 9.625 7.5C9.625 7.76522 9.51964 8.01957 9.33211 8.20711C9.14457 8.39464 8.89022 8.5 8.625 8.5Z" fill="#FF5555"/>
<path d="M20.9999 13C20.7347 13 20.4803 12.8946 20.2928 12.7071C20.1053 12.5195 19.9999 12.2652 19.9999 12C20.0007 10.2395 19.4203 8.52803 18.349 7.13109C17.2777 5.73415 15.7752 4.72987 14.0747 4.2741C12.3743 3.81833 10.571 3.93656 8.94458 4.61043C7.3182 5.28429 5.9597 6.47613 5.0799 8.00098C4.94703 8.23052 4.72841 8.39788 4.47214 8.46624C4.21588 8.5346 3.94295 8.49835 3.7134 8.36548C3.48386 8.23261 3.3165 8.01399 3.24814 7.75772C3.17979 7.50145 3.21603 7.22852 3.3489 6.99898C4.44916 5.09322 6.14759 3.60383 8.18072 2.76187C10.2138 1.91991 12.468 1.77245 14.5935 2.34237C16.719 2.91229 18.597 4.16772 19.9361 5.91391C21.2753 7.66009 22.0007 9.79941 21.9999 12C21.9999 12.2652 21.8945 12.5195 21.707 12.7071C21.5195 12.8946 21.2651 13 20.9999 13ZM19.8749 22C19.6097 22 19.3553 21.8946 19.1678 21.7071C18.9803 21.5196 18.8749 21.2652 18.8749 21V17.5H15.3749C15.1097 17.5 14.8553 17.3946 14.6678 17.2071C14.4803 17.0196 14.3749 16.7652 14.3749 16.5C14.3749 16.2348 14.4803 15.9804 14.6678 15.7929C14.8553 15.6053 15.1097 15.5 15.3749 15.5H19.8749C20.1401 15.5 20.3945 15.6053 20.582 15.7929C20.7695 15.9804 20.8749 16.2348 20.8749 16.5V21C20.8749 21.2652 20.7695 21.5196 20.582 21.7071C20.3945 21.8946 20.1401 22 19.8749 22Z" fill="#FF5555"/>
<path d="M12 22C9.34881 21.9968 6.80712 20.9422 4.93244 19.0676C3.05776 17.1929 2.00318 14.6512 2 12C2 11.7348 2.10536 11.4804 2.29289 11.2929C2.48043 11.1054 2.73478 11 3 11C3.26522 11 3.51957 11.1054 3.70711 11.2929C3.89464 11.4804 4 11.7348 4 12C3.99924 13.7605 4.57956 15.472 5.65091 16.8689C6.72225 18.2658 8.22472 19.2701 9.92516 19.7259C11.6256 20.1816 13.4289 20.0634 15.0553 19.3896C16.6817 18.7157 18.0402 17.5239 18.92 15.999C18.9858 15.8853 19.0733 15.7858 19.1776 15.7059C19.2819 15.6261 19.4009 15.5676 19.5278 15.5337C19.6547 15.4999 19.787 15.4914 19.9172 15.5087C20.0473 15.5259 20.1728 15.5687 20.2865 15.6345C20.4002 15.7003 20.4997 15.7878 20.5796 15.8921C20.6594 15.9964 20.7179 16.1154 20.7518 16.2423C20.7856 16.3692 20.7941 16.5015 20.7768 16.6317C20.7596 16.7618 20.7168 16.8873 20.651 17.001C19.7715 18.5175 18.51 19.777 16.9921 20.6541C15.4743 21.5312 13.7531 21.9953 12 22Z" fill="#FF5555"/>
</svg>
