<svg width="40" height="40" viewBox="0 0 40 40" fill="none" xmlns="http://www.w3.org/2000/svg">
<path d="M38.875 22.875C38.6603 23.0405 38.396 23.1286 38.125 23.125C37.931 23.125 37.7396 23.0799 37.566 22.9931C37.3924 22.9063 37.2414 22.7803 37.125 22.625C36.3716 21.6123 35.3909 20.7906 34.2619 20.2262C33.133 19.6617 31.8872 19.3701 30.625 19.375C30.2935 19.375 29.9755 19.2433 29.7411 19.0089C29.5067 18.7745 29.375 18.4566 29.375 18.125C29.375 17.7935 29.5067 17.4756 29.7411 17.2412C29.9755 17.0067 30.2935 16.875 30.625 16.875C31.3364 16.8743 32.0329 16.6712 32.6333 16.2894C33.2336 15.9077 33.7129 15.363 34.0153 14.7191C34.3177 14.0752 34.4307 13.3585 34.3411 12.6527C34.2515 11.947 33.963 11.2813 33.5093 10.7333C33.0556 10.1854 32.4553 9.77783 31.7787 9.55821C31.102 9.33859 30.3768 9.31598 29.6878 9.49302C28.9987 9.67007 28.3743 10.0395 27.8873 10.5581C27.4003 11.0767 27.0709 11.7231 26.9375 12.4219C26.9132 12.589 26.8554 12.7495 26.7674 12.8936C26.6795 13.0377 26.5632 13.1625 26.4257 13.2605C26.2881 13.3584 26.1322 13.4275 25.9672 13.4635C25.8023 13.4996 25.6317 13.5018 25.4659 13.4701C25.3 13.4384 25.1423 13.3735 25.0023 13.2792C24.8622 13.1848 24.7427 13.0631 24.651 12.9214C24.5593 12.7796 24.4972 12.6207 24.4686 12.4543C24.4399 12.2879 24.4453 12.1174 24.4844 11.9532C24.6698 10.981 25.0835 10.0668 25.6913 9.28577C26.2991 8.50473 27.0837 7.8792 27.9806 7.46067C28.8774 7.04213 29.8608 6.84255 30.8498 6.87836C31.8388 6.91416 32.8052 7.18433 33.6694 7.66662C34.5336 8.14891 35.271 8.82953 35.8207 9.65248C36.3705 10.4754 36.7169 11.4172 36.8316 12.4002C36.9463 13.3832 36.8258 14.3794 36.4802 15.3067C36.1347 16.2341 35.5738 17.0662 34.8438 17.7344C36.5426 18.471 38.0188 19.6401 39.125 21.125C39.2235 21.2564 39.2952 21.4058 39.3359 21.5648C39.3766 21.7238 39.3857 21.8893 39.3624 22.0518C39.3392 22.2143 39.2842 22.3707 39.2006 22.5119C39.117 22.6532 39.0063 22.7765 38.875 22.875ZM30.125 33.2032C30.2661 33.5021 30.2846 33.8444 30.1765 34.1569C30.0685 34.4693 29.8425 34.7271 29.5469 34.875C29.3744 34.9518 29.1887 34.9943 29 35C28.7658 34.9984 28.5366 34.9318 28.338 34.8077C28.1394 34.6836 27.9791 34.5067 27.875 34.2969C27.1542 32.8225 26.0339 31.58 24.6417 30.7109C23.2495 29.8418 21.6412 29.381 20 29.381C18.3588 29.381 16.7505 29.8418 15.3583 30.7109C13.9661 31.58 12.8458 32.8225 12.125 34.2969C12.0533 34.4447 11.9531 34.577 11.8302 34.686C11.7074 34.7951 11.5642 34.8789 11.4089 34.9326C11.2536 34.9863 11.0893 35.0088 10.9253 34.999C10.7613 34.9891 10.6008 34.947 10.4531 34.875C10.1575 34.7271 9.93151 34.4693 9.82347 34.1569C9.71543 33.8444 9.73393 33.5021 9.87501 33.2032C11.0367 30.8112 13.0071 28.9072 15.4375 27.8282C14.1935 26.8747 13.2794 25.5553 12.8238 24.0556C12.3682 22.5558 12.3939 20.951 12.8974 19.4667C13.4008 17.9823 14.3567 16.693 15.6306 15.7798C16.9046 14.8666 18.4326 14.3756 20 14.3756C21.5674 14.3756 23.0955 14.8666 24.3694 15.7798C25.6434 16.693 26.5992 17.9823 27.1026 19.4667C27.6061 20.951 27.6318 22.5558 27.1762 24.0556C26.7206 25.5553 25.8065 26.8747 24.5625 27.8282C26.9929 28.9072 28.9633 30.8112 30.125 33.2032ZM20 26.875C20.9889 26.875 21.9556 26.5818 22.7779 26.0324C23.6001 25.483 24.241 24.7021 24.6194 23.7885C24.9978 22.8748 25.0969 21.8695 24.9039 20.8996C24.711 19.9297 24.2348 19.0388 23.5355 18.3395C22.8363 17.6402 21.9454 17.164 20.9755 16.9711C20.0056 16.7782 19.0002 16.8772 18.0866 17.2556C17.173 17.6341 16.3921 18.2749 15.8427 19.0972C15.2933 19.9194 15 20.8861 15 21.875C15.0041 23.1999 15.5322 24.4692 16.469 25.406C17.4058 26.3428 18.6752 26.8709 20 26.875ZM10.625 18.125C10.625 17.7935 10.4933 17.4756 10.2589 17.2412C10.0245 17.0067 9.70653 16.875 9.37501 16.875C8.66359 16.8743 7.96707 16.6712 7.36675 16.2894C6.76643 15.9077 6.28709 15.363 5.98468 14.7191C5.68227 14.0752 5.56927 13.3585 5.65888 12.6527C5.74848 11.947 6.03699 11.2813 6.49072 10.7333C6.94446 10.1854 7.54469 9.77783 8.22136 9.55821C8.89803 9.33859 9.62321 9.31598 10.3122 9.49302C11.0013 9.67007 11.6257 10.0395 12.1127 10.5581C12.5997 11.0767 12.9291 11.7231 13.0625 12.4219C13.0868 12.589 13.1446 12.7495 13.2326 12.8936C13.3206 13.0377 13.4368 13.1625 13.5744 13.2605C13.7119 13.3584 13.8678 13.4275 14.0328 13.4635C14.1978 13.4996 14.3683 13.5018 14.5341 13.4701C14.7 13.4384 14.8577 13.3735 14.9978 13.2792C15.1378 13.1848 15.2573 13.0631 15.349 12.9214C15.4408 12.7796 15.5028 12.6207 15.5314 12.4543C15.5601 12.2879 15.5547 12.1174 15.5156 11.9532C15.3302 10.981 14.9165 10.0668 14.3087 9.28577C13.7009 8.50473 12.9163 7.8792 12.0195 7.46067C11.1226 7.04213 10.1392 6.84255 9.15021 6.87836C8.16118 6.91416 7.19479 7.18433 6.33058 7.66662C5.46637 8.14891 4.72905 8.82953 4.17929 9.65248C3.62954 10.4754 3.28308 11.4172 3.16842 12.4002C3.05376 13.3832 3.17418 14.3794 3.51977 15.3067C3.86536 16.2341 4.42624 17.0662 5.15626 17.7344C3.45737 18.471 1.98124 19.6401 0.875005 21.125C0.676093 21.3903 0.590684 21.7236 0.637568 22.0518C0.684452 22.38 0.859789 22.6761 1.12501 22.875C1.33971 23.0405 1.60398 23.1286 1.87501 23.125C2.06906 23.125 2.26045 23.0799 2.43402 22.9931C2.60759 22.9063 2.75857 22.7803 2.87501 22.625C3.62842 21.6123 4.60909 20.7906 5.73807 20.2262C6.86704 19.6617 8.11278 19.3701 9.37501 19.375C9.70653 19.375 10.0245 19.2433 10.2589 19.0089C10.4933 18.7745 10.625 18.4566 10.625 18.125Z" fill="#FF5555"/>
</svg>
